#!OML:ASF H:\MichaelJackson\Top Level 1\Subject 1\Session 1\male.ASF
:FULLY-SPECIFIED
:DEGREES
1577
root -7.712 16.8303 18.2047 -357.531 36.4088 -3.23695
lowerback -3.58043 -1.95744 -7.09421
upperback -1.8351 -2.37605 0.381954
thorax 0.413608 -1.14724 4.27473
lowerneck -5.43393 -10.7007 -6.33993
upperneck 18.3905 -14.7002 4.40011
head 7.33549 -7.13159 1.19233
rclavicle -4.56211e-014 1.03368e-014
rhumerus -62.0451 -4.0639 -69.7137
rradius 41.173
rwrist 13.8324
rhand -23.8815 -18.2683
rfingers 7.12502
rthumb 2.59177 -48.2323
lclavicle -4.56211e-014 1.03368e-014
lhumerus -21.7043 1.03459 20.8047
lradius 103.995
lwrist 46.3223
lhand -19.07 19.6379
lfingers 7.12502
lthumb 7.23758 49.4942
rfemur -24.6412 -6.85011 23.9364
rtibia 53.1905
rfoot -14.8968 -6.57899
rtoes -36.6968
lfemur -20.1009 3.73549 -20.7631
ltibia 40.6398
lfoot -30.7993 -3.51433
ltoes 40.2282
1578
root -7.68837 16.8276 18.213 -357.402 37.006 -3.24154
lowerback -3.83855 -1.94946 -6.79476
upperback -1.89131 -2.35589 0.36429
thorax 0.485688 -1.13924 4.08194
lowerneck -5.49787 -10.4659 -6.11652
upperneck 18.3351 -14.3867 4.36538
head 7.29005 -6.96829 1.17948
rclavicle -7.48921e-014 -3.97569e-015
rhumerus -61.6993 -3.91985 -70.9965
rradius 41.683
rwrist 13.5593
rhand -24.2796 -18.0717
rfingers 7.12502
rthumb 2.20731 -48.04
lclavicle -7.48921e-014 -3.97569e-015
lhumerus -22.7488 -1.34959 22.0683
lradius 104.683
lwrist 45.026
lhand -17.0878 19.3097
lfingers 7.12502
lthumb 9.15057 49.0912
rfemur -24.169 -6.79514 23.6741
rtibia 52.5037
rfoot -15.737 -6.38319
rtoes -36.6465
lfemur -20.2406 3.21956 -20.8576
ltibia 40.7507
lfoot -31.2588 -3.70742
ltoes 40.2359
1579
root -7.6642 16.8281 18.221 -357.347 37.6314 -3.27418
lowerback -4.06092 -1.9357 -6.5984
upperback -1.91096 -2.32854 0.4377
thorax 0.582297 -1.12885 4.04251
lowerneck -5.50481 -10.2674 -6.03227
upperneck 18.2291 -14.1096 4.34821
head 7.233 -6.83182 1.1925
rclavicle 1.50331e-013 1.11319e-014
rhumerus -61.3086 -3.83807 -72.074
rradius 42.3277
rwrist 13.2181
rhand -24.6052 -18.0986
rfingers 7.12502
rthumb 1.89289 -48.0699
lclavicle 1.50331e-013 1.11319e-014
lhumerus -23.8749 -3.65944 23.5916
lradius 105.277
lwrist 43.9501
lhand -14.9649 18.7617
lfingers 7.12502
lthumb 11.1986 48.4428
rfemur -23.7566 -7.21353 23.4919
rtibia 51.9261
rfoot -16.4341 -5.99053
rtoes -36.9681
lfemur -20.305 2.6725 -20.9232
ltibia 40.8128
lfoot -31.5838 -3.83462
ltoes 40.2684
1580
root -7.63912 16.8261 18.228 -357.341 38.2774 -3.38755
lowerback -4.2571 -1.89905 -6.32343
upperback -1.93868 -2.27702 0.509826
thorax 0.650322 -1.10544 3.96011
lowerneck -5.59949 -10.1384 -5.99532
upperneck 18.2326 -13.9269 4.33889
head 7.23678 -6.73922 1.19739
rclavicle -5.2181e-014 -1.59028e-015
rhumerus -60.922 -3.82854 -73.0964
rradius 42.9938
rwrist 12.822
rhand -24.8789 -18.1536
rfingers 7.12502
rthumb 1.6285 -48.1272
lclavicle -5.2181e-014 -1.59028e-015
lhumerus -24.9801 -6.05138 25.3241
lradius 105.839
lwrist 42.8193
lhand -12.9506 18.3295
lfingers 7.12502
lthumb 13.1408 47.8954
rfemur -23.4235 -8.10664 23.4332
rtibia 51.4558
rfoot -17.0446 -5.59858
rtoes -37.2102
lfemur -20.359 2.0205 -20.9158
ltibia 40.8386
lfoot -31.7487 -3.8108
ltoes 40.2843
1581
root -7.61354 16.8291 18.2342 -357.372 38.9015 -3.59157
lowerback -4.50666 -1.85359 -6.08728
upperback -1.95514 -2.21025 0.647806
thorax 0.762234 -1.07566 3.96708
lowerneck -5.65845 -10.0058 -5.85481
upperneck 18.2383 -13.7413 4.26783
head 7.2229 -6.64406 1.17017
rclavicle 4.22914e-014 8.74653e-015
rhumerus -60.5109 -3.84046 -74.0034
rradius 43.7757
rwrist 12.3445
rhand -24.7614 -18.2846
rfingers 7.12502
rthumb 1.742 -48.2572
lclavicle 4.22914e-014 8.74653e-015
lhumerus -26.1687 -8.38312 27.3006
lradius 106.394
lwrist 41.7181
lhand -10.8761 17.9365
lfingers 7.12502
lthumb 15.1398 47.3627
rfemur -23.1915 -9.25715 23.4995
rtibia 51.071
rfoot -17.5538 -5.2969
rtoes -37.8864
lfemur -20.4291 1.46815 -20.8252
ltibia 40.8323
lfoot -31.8266 -3.84511
ltoes 40.406
1582
root -7.58724 16.836 18.2398 -357.362 39.4603 -3.75478
lowerback -4.65856 -1.76086 -5.78676
upperback -2.05544 -2.09207 0.725388
thorax 0.723007 -1.01364 3.88306
lowerneck -5.53364 -9.92302 -5.7159
upperneck 18.1635 -13.6288 4.19942
head 7.15539 -6.5891 1.14861
rclavicle 3.7123e-014 3.97569e-015
rhumerus -60.3032 -3.78 -74.9917
rradius 44.7591
rwrist 11.6076
rhand -23.9216 -18.7927
rfingers 7.12502
rthumb 2.55311 -48.7571
lclavicle 3.7123e-014 3.97569e-015
lhumerus -27.358 -10.7148 29.4236
lradius 106.838
lwrist 40.8024
lhand -8.86994 17.6358
lfingers 7.12502
lthumb 17.0716 46.9057
rfemur -23.0597 -10.5121 23.552
rtibia 50.7721
rfoot -17.9487 -4.99598
rtoes -38.3715
lfemur -20.4986 1.04938 -20.7679
ltibia 40.7934
lfoot -31.8548 -3.86308
ltoes 40.3589
1583
root -7.5632 16.8418 18.245 -357.378 39.9622 -3.95837
lowerback -4.82593 -1.65193 -5.541
upperback -2.12568 -1.94959 0.846787
thorax 0.724873 -0.941272 3.87598
lowerneck -5.64314 -9.85999 -5.62415
upperneck 18.2805 -13.5355 4.11779
head 7.19504 -6.53922 1.11037
rclavicle 9.82742e-015 6.36111e-015
rhumerus -60.0424 -3.71356 -75.9175
rradius 45.8507
rwrist 10.9386
rhand -23.6335 -19.3073
rfingers 7.12502
rthumb 2.83133 -49.2682
lclavicle 9.82742e-015 6.36111e-015
lhumerus -28.6329 -12.907 31.757
lradius 107.206
lwrist 39.7669
lhand -6.73371 17.2301
lfingers 7.12502
lthumb 19.1269 46.3096
rfemur -22.9787 -11.861 23.6697
rtibia 50.5449
rfoot -18.2091 -4.74268
rtoes -38.987
lfemur -20.5672 0.767953 -20.6493
ltibia 40.7382
lfoot -31.8541 -4.09568
ltoes 40.5679
1584
root -7.54383 16.849 18.2513 -357.436 40.3511 -4.20801
lowerback -5.00895 -1.49494 -5.41104
upperback -2.16946 -1.73787 1.0214
thorax 0.760568 -0.83526 3.99332
lowerneck -5.67275 -9.83606 -5.60384
upperneck 18.316 -13.4993 4.10369
head 7.20739 -6.51878 1.10432
rclavicle -8.88692e-014 -8.74653e-015
rhumerus -59.7791 -3.53122 -76.9581
rradius 47.0413
rwrist 9.8408
rhand -24.1577 -19.9849
rfingers 7.12502
rthumb 2.32506 -49.952
lclavicle -8.88692e-014 -8.74653e-015
lhumerus -29.9505 -15.0284 34.2522
lradius 107.506
lwrist 38.7588
lhand -4.84918 16.7276
lfingers 7.12502
lthumb 20.9383 45.6175
rfemur -22.9488 -13.0012 23.8334
rtibia 50.3945
rfoot -18.4365 -4.36706
rtoes -39.3634
lfemur -20.6177 0.738582 -20.4652
ltibia 40.6572
lfoot -31.8224 -4.4797
ltoes 40.6289
1585
root -7.52495 16.8547 18.2573 -357.486 40.6635 -4.46534
lowerback -5.21684 -1.35928 -5.27499
upperback -2.23103 -1.55372 1.16538
thorax 0.793382 -0.742433 4.07421
lowerneck -5.61404 -9.76159 -5.45377
upperneck 18.3061 -13.4013 4.04141
head 7.17347 -6.46698 1.07611
rclavicle -9.82493e-014 -1.39149e-014
rhumerus -59.5275 -3.22363 -78.102
rradius 48.2951
rwrist 9.03329
rhand -24.6372 -20.792
rfingers 7.12502
rthumb 1.862 -50.7636
lclavicle -9.82493e-014 -1.39149e-014
lhumerus -31.4189 -17.0443 36.8134
lradius 107.679
lwrist 37.5939
lhand -3.90951 16.0981
lfingers 7.12502
lthumb 21.8409 44.8855
rfemur -22.9886 -14.0729 24.0062
rtibia 50.3178
rfoot -18.6149 -3.95796
rtoes -39.5222
lfemur -20.6846 0.812146 -20.2665
ltibia 40.5917
lfoot -31.7374 -5.08698
ltoes 41.026
